{
  "accessors": [
    {
      "bufferView": 2,
      "componentType": 5126,
      "count": 23678,
      "max": [
        0.10774286091327667,
        0.10778386890888214,
        0.10835475474596024
      ],
      "min": [
        -0.10760498046875,
        -0.10778387635946274,
        -0.10835474729537964
      ],
      "type": "VEC3"
    },
    {
      "bufferView": 2,
      "byteOffset": 284136,
      "componentType": 5126,
      "count": 23678,
      "max": [
        0.9998493194580078,
        1.0,
        1.0
      ],
      "min": [
        -0.9999608993530273,
        -1.0,
        -1.0
      ],
      "type": "VEC3"
    },
    {
      "bufferView": 1,
      "componentType": 5126,
      "count": 23678,
      "max": [
        0.9924242496490479,
        0.4723820686340332
      ],
      "min": [
        0.007575750816613436,
        0.0
      ],
      "type": "VEC2"
    },
    {
      "bufferView": 0,
      "componentType": 5125,
      "count": 102528,
      "type": "SCALAR"
    },
    {
      "bufferView": 2,
      "byteOffset": 568272,
      "componentType": 5126,
      "count": 1300,
      "max": [
        -0.06257843971252441,
        0.030054472386837006,
        0.08652734756469727
      ],
      "min": [
        -0.10760498046875,
        -0.030054470524191856,
        -0.012650351040065289
      ],
      "type": "VEC3"
    },
    {
      "bufferView": 2,
      "byteOffset": 583872,
      "componentType": 5126,
      "count": 1300,
      "max": [
        0.6490182876586914,
        0.9996757507324219,
        0.9992519617080688
      ],
      "min": [
        -0.9995781183242798,
        -0.9996757507324219,
        -0.9901397228240967
      ],
      "type": "VEC3"
    },
    {
      "bufferView": 1,
      "byteOffset": 189424,
      "componentType": 5126,
      "count": 1300,
      "max": [
        0.22254416346549988,
        0.37103158235549927
      ],
      "min": [
        0.14109185338020325,
        0.21816684305667877
      ],
      "type": "VEC2"
    },
    {
      "bufferView": 0,
      "byteOffset": 410112,
      "componentType": 5125,
      "count": 6912,
      "type": "SCALAR"
    }
  ],
  "asset": {
    "extras": {
      "author": "A_dub (https://sketchfab.com/A_dub)",
      "license": "CC-BY-4.0 (http://creativecommons.org/licenses/by/4.0/)",
      "source": "https://sketchfab.com/3d-models/bowling-ball-5377e2fa1d904a8c919341c6b3e0f182",
      "title": "Bowling Ball"
    },
    "generator": "Sketchfab-12.67.0",
    "version": "2.0"
  },
  "bufferViews": [
    {
      "buffer": 0,
      "byteLength": 437760,
      "name": "floatBufferViews",
      "target": 34963
    },
    {
      "buffer": 0,
      "byteLength": 199824,
      "byteOffset": 437760,
      "byteStride": 8,
      "name": "floatBufferViews",
      "target": 34962
    },
    {
      "buffer": 0,
      "byteLength": 599472,
      "byteOffset": 637584,
      "byteStride": 12,
      "name": "floatBufferViews",
      "target": 34962
    }
  ],
  "buffers": [
    {
      "byteLength": 1237056,
      "uri": "scene.bin"
    }
  ],
  "materials": [
    {
      "doubleSided": true,
      "name": "Bowling_Ball",
      "pbrMetallicRoughness": {
        "baseColorFactor": [
          0.00206345,
          0.00206345,
          0.00206345,
          1.0
        ],
        "metallicFactor": 0.0,
        "roughnessFactor": 0.1
      }
    },
    {
      "doubleSided": true,
      "name": "Hole_Colour",
      "pbrMetallicRoughness": {
        "baseColorFactor": [
          0.8,
          0.0308775,
          0.0275369,
          1.0
        ],
        "metallicFactor": 0.0,
        "roughnessFactor": 0.1
      }
    }
  ],
  "meshes": [
    {
      "name": "Bowling Ball_Bowling Ball_0",
      "primitives": [
        {
          "attributes": {
            "NORMAL": 1,
            "POSITION": 0,
            "TEXCOORD_0": 2
          },
          "indices": 3,
          "material": 0,
          "mode": 4
        }
      ]
    },
    {
      "name": "Bowling Ball_Hole Colour_0",
      "primitives": [
        {
          "attributes": {
            "NORMAL": 5,
            "POSITION": 4,
            "TEXCOORD_0": 6
          },
          "indices": 7,
          "material": 1,
          "mode": 4
        }
      ]
    }
  ],
  "nodes": [
    {
      "children": [
        1
      ],
      "matrix": [
        1.0,
        0.0,
        0.0,
        0.0,
        0.0,
        2.220446049250313e-16,
        -1.0,
        0.0,
        0.0,
        1.0,
        2.220446049250313e-16,
        0.0,
        0.0,
        0.0,
        0.0,
        1.0
      ],
      "name": "Sketchfab_model"
    },
    {
      "children": [
        2
      ],
      "matrix": [
        1.0,
        0.0,
        0.0,
        0.0,
        0.0,
        0.0,
        1.0,
        0.0,
        0.0,
        -1.0,
        0.0,
        0.0,
        0.0,
        0.0,
        0.0,
        1.0
      ],
      "name": "381aecf6751f4c55b2fbba788d79f883.fbx"
    },
    {
      "children": [
        3
      ],
      "name": "RootNode"
    },
    {
      "children": [
        4,
        5
      ],
      "matrix": [
        100.0,
        0.0,
        0.0,
        0.0,
        0.0,
        -1.629206793918314e-05,
        -99.99999999999868,
        0.0,
        0.0,
        99.99999999999868,
        -1.629206793918314e-05,
        0.0,
        0.0,
        10.457931518554688,
        0.0,
        1.0
      ],
      "name": "Bowling Ball"
    },
    {
      "mesh": 0,
      "name": "Bowling Ball_Bowling Ball_0"
    },
    {
      "mesh": 1,
      "name": "Bowling Ball_Hole Colour_0"
    }
  ],
  "scene": 0,
  "scenes": [
    {
      "name": "Sketchfab_Scene",
      "nodes": [
        0
      ]
    }
  ]
}
